<svg xmlns="http://www.w3.org/2000/svg" width="48.937" height="49.077" viewBox="0 0 48.937 49.077">
  <g id="form_icon" transform="translate(-0.91 0)">
    <g id="form_icon-2" data-name="form_icon">
      <path id="Path_820" data-name="Path 820" d="M73.342,141.195c.708.005,1.417-.013,2.123.026a2.967,2.967,0,0,1,1.234.278c.872.441.756,1.195.68,1.906-.042.394-.468.625-.812.772-.16.069-.21.2-.339.261a1.182,1.182,0,0,1-.676.087q-3.728.005-7.457,0a10.942,10.942,0,0,1-2.074-.88c-.286-.15-.354-.5-.484-.776-.186-.4-.566-.725-.446-1.232a2.131,2.131,0,0,0,.061-.794c.009-8.566-.013-17.132.014-25.7a.657.657,0,0,0-.047-.26.317.317,0,0,1,.191-.428.481.481,0,0,0,.243-.189c.343-.705,1-.646,1.56-.53.594.123.883.676,1.09,1.228.03.079.055.16.082.239.025.3.025.6.025.907q0,11.892,0,23.783a1.416,1.416,0,0,0,.089.784.984.984,0,0,0,.9.526c.631,0,1.262-.009,1.893-.015a3.523,3.523,0,0,1,2.151,0" transform="translate(-58.104 -101.506)" fill="#313a38"/>
      <path id="Path_823" data-name="Path 823" d="M124.329,173.365a2.223,2.223,0,0,1-1.3-.3,1.439,1.439,0,0,1-.274-2.069,4.612,4.612,0,0,1,.624-.65,4.263,4.263,0,0,1,1.341-.089c.238-.022.491.057.71-.1l6.593,0a3.531,3.531,0,0,0,1.317.094c.267.02.541-.013.735.23a1.688,1.688,0,0,1,.665,1.554,1.425,1.425,0,0,1-1.292,1.321c-.248.01-.5.007-.746.01a.844.844,0,0,1-.368.043h-7.525a1.72,1.72,0,0,1-.477-.044" transform="translate(-109.323 -151.946)" fill="#313a38"/>
      <path id="Path_824" data-name="Path 824" d="M323.285,117.21c0,.517,0,1.034,0,1.551,0,.989-.453,1.445-1.432,1.442-.536,0-1.075.079-1.438-.517-.159-.26-.094-.508-.164-.754-.107-.375-.436-.729-.274-1.137.381-.962.057-1.987.312-2.956a2.273,2.273,0,0,1,1.142-.821c1.243-.09,1.854.486,1.854,1.749Z" transform="translate(-285.695 -101.808)" fill="#313a38"/>
      <path id="Path_825" data-name="Path 825" d="M123.971,259.5a1.234,1.234,0,0,1-1.148-.76,1.471,1.471,0,0,1,.113-1.654,1.99,1.99,0,0,1,1.713-.731,22.58,22.58,0,0,1,2.457-.021,1.722,1.722,0,0,1,1.682,1.115,1.987,1.987,0,0,1-.709,1.928,1.184,1.184,0,0,1-.662.125,28.035,28.035,0,0,1-3.446,0" transform="translate(-109.498 -228.876)" fill="#313a38"/>
      <path id="Path_851" data-name="Path 851" d="M51.443,16.6c-.006-1.658,0-3.316-.007-4.974a9.7,9.7,0,0,0-.033-1.352,6.036,6.036,0,0,0-.815-2.1,4.529,4.529,0,0,0-2.114-1.757,6.88,6.88,0,0,0-2-.327,2.226,2.226,0,0,0-1.3-.134,21.737,21.737,0,0,0-2.975.059c-.1.162-.257.094-.383.087-.577-.033-1.058-.612-.76-.977.322-.395.189-.912.514-1.262a3.378,3.378,0,0,0-.033-1.814A4.623,4.623,0,0,0,40.579.9,2.1,2.1,0,0,0,38.934,0C32.829.023,26.724.013,20.618.014c-.354,0-.707-.076-.967.33-.189.3-.614.455-.765.759a3.415,3.415,0,0,0-.561,2.068c.068.435-.115.915.07,1.314a8.03,8.03,0,0,1,.456,1.3c-.151.211-.377.166-.586.166-1.351,0-2.7,0-4.054,0a1.984,1.984,0,0,0-.791.065c-.04.029-.078.081-.119.084a4.518,4.518,0,0,0-2.858.849A5.345,5.345,0,0,0,8.854,8.9,5.874,5.874,0,0,0,8.5,11.143q.01,16.384.014,32.768a4.994,4.994,0,0,0,.928,3.406,3.969,3.969,0,0,0,1.747,1.329,4.745,4.745,0,0,0,2.107.278.947.947,0,0,0,.662.142H29.444a.947.947,0,0,0,.662-.142c.254.1.32-.192.521-.242a1.321,1.321,0,0,0,.782-1.847,1.884,1.884,0,0,0-1.934-1.139q-7.512.005-15.024,0a2.238,2.238,0,0,0-.568.077,1.767,1.767,0,0,1-2.19-1.683,1.013,1.013,0,0,0,.059-.312c0-2.287.015-4.575-.01-6.862-.01-.178.013-.355.013-.533q-.006-8.982,0-17.963c.009-2.325,0-4.65,0-6.976a1.963,1.963,0,0,0-.033-.738c-.171-.686.566-.772.783-1.2a.282.282,0,0,1,.373-.173c1.689.077,3.379.019,5.069.03a.624.624,0,0,0,.4-.138,2.286,2.286,0,0,1,1.458.235,2.313,2.313,0,0,1,.922,1.282c.362,1.1,1.222,1.353,2.2,1.471a1.9,1.9,0,0,0,.53.044H36.8a1.11,1.11,0,0,0,.474-.045c.769-.211,1.529-.424,1.656-1.4a1.573,1.573,0,0,1,.492-.879,3.22,3.22,0,0,1,3.083-.622,25.506,25.506,0,0,0,3.14.042.5.5,0,0,0,.29-.124c.237-.1.436.075.658.093a1.718,1.718,0,0,1,1.492,1.383c.193.187.143.429.143.656q0,3.288,0,6.576a1.79,1.79,0,0,1-.05.583,1.7,1.7,0,0,0,1.273,1.493A1.761,1.761,0,0,0,51.4,18.251a9.109,9.109,0,0,1,0-1.118,3.588,3.588,0,0,0,.046-.532M37.763,4.882c-.23.757-.525,1.491-.748,2.255a2.536,2.536,0,0,1-.529,1.306c-.176.161.048.435-.174.578a1.126,1.126,0,0,1-.626.084q-5.692,0-11.384,0a1.073,1.073,0,0,1-.625-.088,1.876,1.876,0,0,1-.741-1.574c.011-.445-.29-.79-.407-1.195A5.374,5.374,0,0,0,22.061,4.8a3.2,3.2,0,0,1-.423-1.257.8.8,0,0,1,.652-.16q7.583,0,15.165,0a.821.821,0,0,1,.652.165,4.192,4.192,0,0,1-.344,1.332" transform="translate(-7.595 0)" fill="#313a38"/>
      <path id="Path_854" data-name="Path 854" d="M234.986,210.911a8.06,8.06,0,0,1-.82-1.812,2.879,2.879,0,0,1-.354-.934c-.045-.91-.734-1.489-1.141-2.18a15.881,15.881,0,0,0-1.358-1.75,13.3,13.3,0,0,0-1.537-1.393,9.429,9.429,0,0,0-1.686-1.124,12.43,12.43,0,0,0-1.979-.962,22.285,22.285,0,0,0-2.223-.643,3.668,3.668,0,0,0-1.534-.2,9.136,9.136,0,0,1-2.041,0c-.3,0-.657-.1-.893.025-.636.336-1.357.21-2.007.475a11.779,11.779,0,0,0-1.59.51,6.834,6.834,0,0,1-1.107.556c-.7.242-1.2.825-1.88,1.091a.5.5,0,0,0-.185.146,7.42,7.42,0,0,1-1.186,1.105,17.059,17.059,0,0,0-1.181,1.363,14.027,14.027,0,0,0-1.3,2.137,3.823,3.823,0,0,0-.428.806c-.146.506-.328,1-.467,1.506a7.785,7.785,0,0,0-.37,1.2c-.061.627-.1,1.262-.154,1.893a1.051,1.051,0,0,0-.141.662,9.488,9.488,0,0,1-.049,1.485,1.713,1.713,0,0,1,.225.563c.08.472-.1,1.081.147,1.384.41.507.038,1.219.581,1.616a7.722,7.722,0,0,0,1.592,3.172,10.5,10.5,0,0,0,2.546,2.649,20.173,20.173,0,0,0,1.9,1.381,10.677,10.677,0,0,0,4.652,1.567,3.441,3.441,0,0,1,1.292.307,2.884,2.884,0,0,0,1.507-.107,9.291,9.291,0,0,0,1.213-.2,10.324,10.324,0,0,0,2.782-.546c.828-.317,1.592-.752,2.395-1.115a10.928,10.928,0,0,0,1.974-1.339,9.611,9.611,0,0,0,2.07-2.066,13.678,13.678,0,0,0,1.537-2.7,8,8,0,0,0,.592-1.539,2.434,2.434,0,0,1,.591-1.312c.094-1.893.069-3.786.014-5.679m-3.234,3.787a3.537,3.537,0,0,1-.478,1.915,1.846,1.846,0,0,0-.2.783,7.951,7.951,0,0,1-1.4,2.7,5.878,5.878,0,0,1-1.379,1.5c-.775.626-1.67,1.06-2.483,1.622a4.758,4.758,0,0,1-1.064.407,11.784,11.784,0,0,1-4.915.492,10.461,10.461,0,0,1-3.338-.991,7.658,7.658,0,0,1-2.834-2.1,16.021,16.021,0,0,1-1.189-1.4c-.427-.612-.672-1.316-1.046-1.95a10.7,10.7,0,0,1-.8-2.567,5.536,5.536,0,0,1-.036-1.914,10.785,10.785,0,0,1,.71-3.171,3.72,3.72,0,0,0,.475-1.235c.01-.285.376-.385.506-.671a7.891,7.891,0,0,1,1.885-2.225,7.22,7.22,0,0,0,.969-.935,1.965,1.965,0,0,1,.766-.453c.812-.393,1.615-.813,2.454-1.14a5.327,5.327,0,0,1,1.3-.169,19.653,19.653,0,0,1,3.077-.066c.053,0,.106,0,.159,0a4.839,4.839,0,0,1,2.206.751c.213.19.509.132.769.271a8.05,8.05,0,0,1,2.28,1.659c.292.324.677.573,1,.892a10.082,10.082,0,0,1,1.206,1.651,5.09,5.09,0,0,1,.771,1.6c.13.542.342,1.064.473,1.607a9.977,9.977,0,0,1,.154,3.144" transform="translate(-185.188 -178.489)" fill="#313a38"/>
    </g>
    <path id="Path_858" data-name="Path 858" d="M272.759,291.717a2.728,2.728,0,0,1-1.6-.513,18.01,18.01,0,0,1-2.814-2.463,7.093,7.093,0,0,1-1.3-1.557,1.154,1.154,0,0,1,.418-1.685c.1-.054.213-.077.29-.2.357-.558.837-.558,1.4-.179a10.859,10.859,0,0,1,2.175,2.267c.292.353.724.595,1.041.955.158.179.4.007.5-.124.452-.6.839-1.257,1.31-1.844.455-.567.852-1.177,1.3-1.748a11.632,11.632,0,0,0,1.161-1.555,5.691,5.691,0,0,1,.514-.631c.489-.645.935-1.326,1.463-1.937a1.4,1.4,0,0,1,2.184-.092c.867.837.866,1.168.143,2.233-.6.883-1.147,1.805-1.814,2.633-.521.647-.91,1.382-1.444,2.009a5.218,5.218,0,0,0-.881,1.04c-.28.605-1.01.853-1.138,1.545-.023.12-.111.1-.184.139a1.113,1.113,0,0,0-.57.615c-.164.426-.636.536-.976.744a1.444,1.444,0,0,1-1.17.344" transform="translate(-238.283 -249.979)" fill="#313a38"/>
  </g>
</svg>
