<svg xmlns="http://www.w3.org/2000/svg" width="49.897" height="45.856" viewBox="0 0 49.897 45.856">
  <g id="home_icon" transform="translate(-44.999 -204.844)">
    <path id="Path_776" data-name="Path 776" d="M53.564,165.225a7.384,7.384,0,0,1,1.543-.927,10.27,10.27,0,0,1,4.454-.533,5.8,5.8,0,0,1,2.374.537,5.273,5.273,0,0,1,2.871,5.028q.08,4.431,0,8.86c-.022,1.262.139,1.4,1.371,1.4q3.223,0,6.445,0c1.074,0,1.336-.243,1.336-1.325,0-1.528-.068-3.055-.064-4.583.008-3.109.044-6.218.073-9.327a1.854,1.854,0,0,1,.674-1.655,1.6,1.6,0,0,1,2.534,1.122,6.068,6.068,0,0,1,.069,1.162q.006,7.66,0,15.319c0,.156,0,.311,0,.467-.052,1.521-.612,2.088-2.158,2.11-1.605.023-3.211.006-4.816.006-2.175,0-4.35.006-6.525,0-1.74-.006-2.254-.531-2.255-2.292q0-5.288,0-10.576c0-.207,0-.415,0-.622-.05-1.615-.552-2.152-2.143-2.21a18.388,18.388,0,0,0-2.327.055,1.543,1.543,0,0,0-1.527,1.389,8.065,8.065,0,0,0-.113,1.313q0,5.288,0,10.576c0,1.817-.638,2.4-2.439,2.391-3.651-.027-7.3-.019-10.953-.019a2.513,2.513,0,0,1-1.805-.558,3.125,3.125,0,0,1-.551-1.966c.024-5.232.013-10.463.012-15.7a2.429,2.429,0,0,1,.525-1.81,1.662,1.662,0,0,1,2.779,1.478q.006,6.878,0,13.757c0,1.419.083,1.5,1.5,1.5q3.144,0,6.288,0c1.12,0,1.358-.23,1.362-1.369,0-.775-.053-1.55-.077-2.323-.078-2.586.02-5.174.194-7.756a5.421,5.421,0,0,1,.555-1.845c.274-.351.408-.807.793-1.076" transform="translate(11.555 67.789)" fill="#313a38"/>
    <path id="Path_777" data-name="Path 777" d="M38.465,16.305c-1.461-1.54-2.948-3.054-4.5-4.5-.412-.468-.863-.9-1.3-1.341-.376-.363-.734-.745-1.11-1.109q-1.47-1.472-2.939-2.944a28.183,28.183,0,0,0-2.63-2.491c-.957-.72-.957-.72-1.843-.19C22.052,5.547,20.186,7.6,18.222,9.55q-4.961,4.925-9.872,9.9c-1.659,1.671-3.3,3.363-4.953,5.037a2.411,2.411,0,0,1-1.506.881,1.706,1.706,0,0,1-1.776-.685,2.178,2.178,0,0,1,.471-2.068c2.523-2.711,5.2-5.269,7.8-7.9Q14.615,8.422,20.881,2.167A6.306,6.306,0,0,1,24.564.028C26.357-.178,27.7.773,28.88,1.942c3.932,3.9,7.829,7.837,11.74,11.758q4.113,4.123,8.23,8.243c.293.393.755.66.881,1.18a1.6,1.6,0,0,1-.386,1.962,1.64,1.64,0,0,1-2.057-.023L43,20.807,39.256,17.09a8.108,8.108,0,0,0-.791-.785" transform="translate(45 204.844)" fill="#313a38"/>
  </g>
</svg>
