<svg xmlns="http://www.w3.org/2000/svg" width="49.081" height="54.456" viewBox="0 0 49.081 54.456">
  <g id="profile_icon" transform="translate(15084.642 -1337.45)">
    <path id="Subtraction_13" data-name="Subtraction 13" d="M36.755,18.484c-.344,0-.5-.156-.513-.507a2.311,2.311,0,0,0-.125-.588v-.007l0,0-.006-.018a1.609,1.609,0,0,1-.09-.838,2.037,2.037,0,0,0,.063-.648v-.092a1.352,1.352,0,0,1,0-.176v-.194a3.049,3.049,0,0,0-.048-.655.492.492,0,0,1-.114-.38.146.146,0,0,1,0-.035V14.3a.488.488,0,0,0-.338-.106h-.055a.275.275,0,0,1-.052,0,1.055,1.055,0,0,1-.106,0c-3.683,0-7.43,0-11.053,0s-7.365,0-11.048,0l-.026,0-.03,0h-.058l-.011,0h0l-.052,0-.049,0a.424.424,0,0,0-.282.084.686.686,0,0,0-.073.352v.018a1.014,1.014,0,0,1-.041.3.724.724,0,0,0-.1.467v.012l0,.014a.7.7,0,0,1-.11.521,6.011,6.011,0,0,0-.048.944c0,.07,0,.142,0,.211v.092l0,.046a1.614,1.614,0,0,0,.01.321c0,.1,0,.194,0,.211a.918.918,0,0,1-.157.676H12.16c-.59,0-1.189,0-1.766.007H10.33c-.344,0-.517,0-.6-.081s-.081-.254-.07-.564a1.769,1.769,0,0,0,.044-.373v-.007a.96.96,0,0,1,.125-.556c0-.019,0-.039,0-.058s0-.039,0-.058l0-.011v-.007a.442.442,0,0,0-.084-.373.168.168,0,0,1-.052-.123c.008-.05.052-.084.1-.119l.015-.011.008-.006c.058-.041.121-.086.114-.156a3.264,3.264,0,0,0,.022-1.3v-.015a1.817,1.817,0,0,1,.139-.9,1.188,1.188,0,0,0-.088-1,.886.886,0,0,1-.066-.507v-.007a1.336,1.336,0,0,0-.011-.338,1.122,1.122,0,0,0,.022-.747.929.929,0,0,1-.311-.807c0-.03,0-.059,0-.086s0-.024,0-.035v-.03l0-.011v-.011a2.213,2.213,0,0,0-.275-1.441.454.454,0,0,1-.03-.289l0-.017,0-.018V8.386a1.121,1.121,0,0,0,.008-.12,1.644,1.644,0,0,0,.07-.578V7.516a.535.535,0,0,0-.151-.458L9.259,6.6A.983.983,0,0,1,9.171,6V5.988l0-.061V5.914a2.156,2.156,0,0,0,0-.272,1.435,1.435,0,0,1,0-.313,1.06,1.06,0,0,0-.081-.588c-.083-.206-.135-.3-.282-.3a.949.949,0,0,0-.323.074A7.669,7.669,0,0,0,6.619,5.57L6.6,5.586c-.143.1-.332.232-.525.359a4.925,4.925,0,0,0-.887.81l-.03.028,0,.007-.031.033L5.1,6.846c-.122.126-.26.27-.4.4a4.24,4.24,0,0,0-.665.825L4.013,8.1l-.022.031-.01.014a6.355,6.355,0,0,1-.438.592.8.8,0,0,0-.163.382l0,.009,0,.018,0,.013a1.2,1.2,0,0,1-.166.414,2.554,2.554,0,0,0-.382,1.279v.014l0,.028-.006.047c0,.014,0,.027,0,.041,0,.052-.011.114-.022.176l0,.042,0,.035a.689.689,0,0,0-.085.45v.071c0,.01,0,.021,0,.031s0,.022,0,.032c0,1.011,0,2.037,0,3.029v3.029a.8.8,0,0,0,0,.1V18a.575.575,0,0,1-.1.454c-.236,0-.462,0-.7,0H1.57c-.352,0-.715.007-1.075.017H.459a.32.32,0,0,1-.22-.06.358.358,0,0,1-.055-.257c0-.16.008-.331,0-.507v-.032A4.474,4.474,0,0,1,.195,17.1.792.792,0,0,0,0,16.522a7.6,7.6,0,0,0,.048-1.235v-.019c0-.193-.008-.417,0-.631.008-.4,0-.8,0-1.22V13.36l0-.106c0-.562-.009-1.261.037-1.927A.2.2,0,0,1,.092,11.3L.1,11.287.1,11.274l.007-.011.008-.011a.708.708,0,0,0,.135-.482,1.208,1.208,0,0,0,.026-.345V10.41a.844.844,0,0,1,.085-.474.439.439,0,0,1,.017-.06l0-.007.009-.025,0,0c0-.007,0-.015.008-.023s.011-.035.016-.054l.008-.021L.473,9.6l0-.014c.084-.263.175-.54.275-.8l.022-.06c.038-.1.074-.2.107-.3l.014-.042,0-.018,0-.007a3.575,3.575,0,0,1,.547-1.131,2.738,2.738,0,0,0,.279-.464l0-.008.008-.011.007-.014A2.341,2.341,0,0,1,2.08,6.2c.129-.144.257-.292.382-.44l.055-.063.044-.053,0-.007.018-.021a9.157,9.157,0,0,1,1.534-1.5c.588-.428,1.245-.869,2.131-1.43a10.41,10.41,0,0,1,1.738-.82l.007,0,.023-.009.011,0,.026-.011.055-.022c.409-.164.833-.335,1.235-.541a2.2,2.2,0,0,1,.6-.163l.017,0,.022,0h.009a3.368,3.368,0,0,0,.458-.1A3.5,3.5,0,0,1,11.07.863l.014,0a2.151,2.151,0,0,0,1.024-.34.4.4,0,0,1,.242-.056c.063,0,.136,0,.165.007.05,0,.1.007.157.007h.121a3,3,0,0,0,1.39-.268,2.963,2.963,0,0,0,.51.06,1.19,1.19,0,0,0,.374-.06A1.849,1.849,0,0,1,15.784.1l.134,0h.134l.029,0h0a.917.917,0,0,1,.094,0h.129a.981.981,0,0,0,.1,0h.077c.2,0,.405-.015.565-.025.238-.013.508-.028.775-.028a3.753,3.753,0,0,1,1.229.173c.108.035.221.064.332.092l.022.006.016,0,.052.014h.008A1.88,1.88,0,0,1,20.611.93a.573.573,0,0,0,.42.182h.01l.033,0,.026,0a.954.954,0,0,1,.2.048,6.7,6.7,0,0,1,1.026.553l.008,0h0l0,0,.084.049c.17.106.395.244.631.363a2.381,2.381,0,0,0,.35.126l.016,0a1.548,1.548,0,0,1,.425.166.516.516,0,0,0,.345.148.528.528,0,0,0,.344-.148c.145-.082.287-.159.407-.224l.023-.012.3-.169.126-.067c.051-.03.1-.059.153-.086l.107-.059.117-.067.067-.035c.311-.169.629-.346.9-.5a2.691,2.691,0,0,1,.511-.207L27.317.99A3.175,3.175,0,0,0,27.776.8l.1-.053A4.14,4.14,0,0,1,29.837.077a1.714,1.714,0,0,1,.191.007A4.311,4.311,0,0,1,30.857,0a3.758,3.758,0,0,1,.817.091l1.057.032a.567.567,0,0,0,.425.141.32.32,0,0,0,.058,0h.063a.849.849,0,0,1,.1,0c.038,0,.083,0,.132.007a.93.93,0,0,1,.107,0h.205a1.1,1.1,0,0,0,.374-.049A.352.352,0,0,1,34.334.18a.581.581,0,0,1,.284.1l.013.007.007,0a.627.627,0,0,0,.308.105h.092a7.5,7.5,0,0,1,2.1.4c.336.1.693.165,1,.222h.015a5.416,5.416,0,0,1,1.683.513c.152.083.317.155.462.218l.041.018.011,0,.058.025.024.01a3.347,3.347,0,0,1,.787.406,2.542,2.542,0,0,0,.656.3l.037.014.019.007a3.453,3.453,0,0,1,.52.222,4.975,4.975,0,0,1,.576.377c.187.152.389.3.568.422l.01.007.071.05.114.081a10.449,10.449,0,0,1,1.052.8,12.75,12.75,0,0,1,1.831,2.1l.03.039c.036.054.073.1.125.169a1.755,1.755,0,0,1,.487,1.11.294.294,0,0,0,.132.232l.008.007.008,0h0l0,0a.406.406,0,0,1,.1.127A13.91,13.91,0,0,1,48.1,9.8l0,.011.036.116,0,.021.015.049c.007.026.014.053.022.078l.018.053c0,.015.01.03.014.047l.008.024a11.82,11.82,0,0,1,.33,3.959v.014l0,.1v.011c-.018.634-.036,1.29.008,1.951.022.349.018.724.011,1.078v.07c0,.261-.008.507,0,.754a.368.368,0,0,1-.071.275.339.339,0,0,1-.249.07h-.03l-.173,0h-.01c-.309-.007-.557-.011-.8-.011-.331,0-.583.005-.844.018h-.062a.387.387,0,0,1-.279-.074.424.424,0,0,1-.085-.331c.011-1.043.011-2.072.011-3.163V14.1c0-.5,0-1,0-1.493a3.656,3.656,0,0,0-.093-.7l-.01-.049-.007-.031,0-.011-.008-.035a2.642,2.642,0,0,1-.073-1.053.907.907,0,0,1-.337-.675,1.412,1.412,0,0,0-.151-.5,4.642,4.642,0,0,1-.22-.45l-.011-.025-.01-.028L45,8.957l0-.007-.014-.03c-.009-.019-.017-.039-.027-.058l-.008-.017c-.045-.1-.092-.2-.146-.3a10.388,10.388,0,0,0-1.093-1.511l-.008-.007-.084-.1a6.744,6.744,0,0,0-1.5-1.257l-.006,0c-.026-.02-.053-.039-.079-.057L42.017,5.6,42,5.59c-.022-.014-.043-.028-.064-.043l-.012-.008-.037-.026c-.123-.087-.248-.184-.352-.275a1.957,1.957,0,0,0-1.233-.585H40.24a.257.257,0,0,1-.231-.123c-.074-.121-.129-.173-.183-.173s-.1.053-.143.116l0,.007-.008.007-.01.014c-.041.053-.088.113-.143.113a1.1,1.1,0,0,1-.1.643,1.174,1.174,0,0,0-.107.593,1.308,1.308,0,0,1,.015.634v.007a.8.8,0,0,0-.015.1l0,.015a.152.152,0,0,0,0,.021l0,.021v.007l0,.039a1.669,1.669,0,0,1-.242,1.039.558.558,0,0,0-.048.321c0,.046,0,.089,0,.13v.07a.482.482,0,0,0,0,.074V8.34a2.77,2.77,0,0,1-.246,1.3,1.358,1.358,0,0,0-.062.728l0,.012V10.4l0,.042c.007.081.014.169.014.246a1.8,1.8,0,0,1-.213.916,7.106,7.106,0,0,0-.036,1c.007.712.007,1.436,0,2.152v.19a1.408,1.408,0,0,0,.062.549,2.84,2.84,0,0,1,.2,1.106,3.127,3.127,0,0,1-.015.933c0,.93,0,.93-.964.93h-.068l-.068,0H37.5c-.07,0-.172-.007-.26-.007a2.334,2.334,0,0,0-.3.014C36.862,18.481,36.8,18.484,36.755,18.484ZM11.687,3.364a2.05,2.05,0,0,0-.1.991c.008.105.013.2.016.295a4.727,4.727,0,0,1,.144,1.218,4,4,0,0,0,.234,1.466.556.556,0,0,1,.073.655c0,.045.007.089.009.132s.006.09.01.135a1.091,1.091,0,0,1,.046.264.693.693,0,0,0,.123.4,3.264,3.264,0,0,0,.121.916,1.148,1.148,0,0,1-.011.747,1.35,1.35,0,0,0,.19.83c.029.061.061.131.09.2a1.609,1.609,0,0,0,.432.039H35.541A.608.608,0,0,0,36,11.507c.025-.224.041-.449.057-.7a10.771,10.771,0,0,1,.112-1.095l0-.018c.023-.132.046-.265.07-.4l0-.017a24.192,24.192,0,0,0,.357-2.59,1.257,1.257,0,0,0,.016-.2.555.555,0,0,1,.156-.456c.007-.134.017-.278.03-.454a.87.87,0,0,0,.1-.75c0-.062,0-.127-.008-.179.018-.282.037-.559.073-.839a.227.227,0,0,1,.057-.089c.031-.038.063-.075.055-.109s-.027-.042-.065-.059a5.472,5.472,0,0,0-1.628-.482h-.013a.122.122,0,0,0-.1.076.141.141,0,0,1-.045.052,4.894,4.894,0,0,0-1.184.981l-.006.006a8,8,0,0,1-.659.626c-.122.1-.245.2-.369.3a15.049,15.049,0,0,0-1.193,1.04c-.319.318-.667.618-1,.908l-.015.014A14.549,14.549,0,0,0,29.488,8.3a5.1,5.1,0,0,1-.691.593l-.009.006a5.09,5.09,0,0,0-.731.633,1.585,1.585,0,0,1-1.2.524,1.917,1.917,0,0,1-.411-.045,1.181,1.181,0,0,1-.836-.7,7.011,7.011,0,0,0-.4-.815l-.035-.066-.036-.066c-.048-.087-.1-.174-.147-.26L24.96,8.04a4.76,4.76,0,0,1-.537-1.161.466.466,0,0,0-.29-.112.534.534,0,0,0-.3.1c-.068.126-.144.251-.217.373l-.006.009a4.267,4.267,0,0,0-.426.833,2.925,2.925,0,0,1-1.357,1.863.669.669,0,0,1-.449.152,2.165,2.165,0,0,1-.393-.049l-.042-.008a9.671,9.671,0,0,1-1.712-1.405c-.436-.434-.924-.834-1.4-1.222l-.026-.022c-.279-.229-.568-.466-.841-.708l-.507-.445A25.317,25.317,0,0,1,14.5,4.4a3.876,3.876,0,0,0-1.666-1.134.465.465,0,0,0-.3-.12.511.511,0,0,0-.279.095c-.057.014-.113.032-.17.05a1.115,1.115,0,0,1-.342.072.582.582,0,0,1-.059,0Zm17.705-.592a1.312,1.312,0,0,0-.839.366,2.526,2.526,0,0,1-1.024.574l-.033.012a3.529,3.529,0,0,0-.66.3c-.641.4-.67.511-.308,1.187.036.066.076.132.121.2l.014.025.006.008a1.425,1.425,0,0,1,.284.714.328.328,0,0,0,.32.359.53.53,0,0,0,.282-.1c.309-.217.61-.459.9-.693l.008-.006L28.49,5.7l.015-.014.084-.067a15.75,15.75,0,0,0,1.185-1.1,2.63,2.63,0,0,1,.45-.349l.042-.028a2.451,2.451,0,0,0,.543-.426c.145-.165.307-.317.464-.464l0,0,.037-.035.125-.118c.041-.04.082-.079.125-.118.04-.189-.086-.278-.228-.345a2.487,2.487,0,0,0-.623-.053,2.764,2.764,0,0,1-.59-.042.264.264,0,0,0-.073-.011.449.449,0,0,0-.276.13l-.01.008a.449.449,0,0,1-.257.12h-.023A.719.719,0,0,0,29.393,2.772ZM16.822,2.525a.307.307,0,0,0-.235.141l-.008.007a.529.529,0,0,1-.132.116.029.029,0,0,1,.011.015l0,.006,0,.011.008.011,0,.011a.22.22,0,0,0,.07.088,6.862,6.862,0,0,1,1.418,1.136L18,4.1l.01.011.01.01a9.15,9.15,0,0,0,1.049.913,3.46,3.46,0,0,1,.554.518l.04.042.011.014,0,0,0,0a3.573,3.573,0,0,0,.686.63,1.064,1.064,0,0,0,.553.2.3.3,0,0,0,.316-.229,2.994,2.994,0,0,1,.259-.562l0-.009.018-.028.008-.007c.067-.118.142-.251.2-.38a.439.439,0,0,1,.026-.053l.008-.018a.221.221,0,0,0,.017-.033l0,0,.01-.019L21.8,5.09l0-.006c.107-.2.238-.447.1-.635a1.205,1.205,0,0,0-.612-.377,5.214,5.214,0,0,1-1.1-.521l-.044-.025L20.093,3.5l-.05-.029c-.056-.034-.113-.067-.166-.1l-.014-.007-.042-.025a6.988,6.988,0,0,0-1.275-.645.868.868,0,0,0-.515-.123h-.082c-.059,0-.116,0-.176,0s-.117,0-.173,0h-.2a2.934,2.934,0,0,1-.514-.035A.212.212,0,0,0,16.822,2.525Z" transform="translate(-15084.379 1373.171)" fill="#313a38" stroke="#313a38" stroke-miterlimit="10" stroke-width="0.5"/>
    <path id="Subtraction_14" data-name="Subtraction 14" d="M19.3,25.194c-.287,0-.547-.012-.793-.035a.588.588,0,0,0-.426-.141c-.04,0-.081,0-.119,0h-.115A.8.8,0,0,1,17.613,25c-.3-.079-.615-.134-.917-.187l-.061-.011a10.3,10.3,0,0,1-1.023-.208,5.858,5.858,0,0,1-1.241-.555l-.015-.008a5.616,5.616,0,0,0-1.219-.549,1.16,1.16,0,0,1-.47-.362l0-.007a2.345,2.345,0,0,0-.233-.229,12.428,12.428,0,0,1-2.622-2.974,7.993,7.993,0,0,1-.534-1.031l0-.011-.018-.039c-.09-.2-.2-.439-.322-.665a3.986,3.986,0,0,1-.33-.82c-.126-.4-.63-.528-1-.588a3.431,3.431,0,0,1-1.87-1.186,5.6,5.6,0,0,1-1.108-1.6,3.779,3.779,0,0,1-.349-1.327.861.861,0,0,0-.122-.329l0-.006a.53.53,0,0,1-.09-.482A2.951,2.951,0,0,0,4.068,10.6c-.033-1-.866-1.355-1.49-1.538A2.609,2.609,0,0,1,1.751,8.6L1.7,8.567c-.059-.045-.125-.092-.17-.123a2.89,2.89,0,0,1-1.4-2.091,1.363,1.363,0,0,1-.119-.876l0-.053,0-.024c.006-.085.013-.173.013-.261L.13,4.91l.012-.021A10.187,10.187,0,0,1,.616,3.872a1.314,1.314,0,0,1,.32-.359L.952,3.5a1.8,1.8,0,0,0,.253-.243,5.987,5.987,0,0,1,1.93-1.447c.1-.057.2-.112.288-.162l.112-.063A8.1,8.1,0,0,1,5.729.658c.486-.12.981-.3,1.461-.468l.04-.014c.136-.05.248-.089.352-.123A2.668,2.668,0,0,1,8.107,0a2.7,2.7,0,0,1,.525.053A1.8,1.8,0,0,1,9.388.9L9.4.929a.935.935,0,0,1-.052.577.927.927,0,0,1-.289.5,9.193,9.193,0,0,1-1.237.549,11.234,11.234,0,0,0-1.908.8,3.328,3.328,0,0,1-.479.2l-.055.019c-.091.03-.21.07-.322.12a2.879,2.879,0,0,0-.589.352l0,0a2.919,2.919,0,0,1-.626.37,2.516,2.516,0,0,0-1.1,1.019l-.02.03a.517.517,0,0,0,0,.5,1.288,1.288,0,0,0,.774.75,3.327,3.327,0,0,1,.8.338l.008,0a3.4,3.4,0,0,0,.729.316,2.436,2.436,0,0,1,.4.158l.023.011.013.006a1.856,1.856,0,0,0,.665.205,2.458,2.458,0,0,1,.7.175l.017,0a3.521,3.521,0,0,0,.352.116c.513.14,1.039.245,1.548.347h.008l.073.015c.5.1,1.017.2,1.523.344a.949.949,0,0,0,.215.025,2.018,2.018,0,0,0,.22-.016l.051-.005a1.17,1.17,0,0,1,.2-.014,2.737,2.737,0,0,1,1.051.282l.016.007.048.021a2.819,2.819,0,0,0,.593.046h.226c.091,0,.18-.007.282-.007l.143,0h.143l.139,0h.186l.039,0h.017c.064,0,.128-.007.194-.007a.875.875,0,0,1,.489.12c.226.007.462.007.67.007a11.311,11.311,0,0,1,1.419.063,18.515,18.515,0,0,0,2.275.113h.343l.338,0h.077c.233,0,.463,0,.7,0,.33,0,.605,0,.867.011a3.28,3.28,0,0,1,.826-.088c.137,0,.272,0,.411.011h.011c.133,0,.272.007.408.007.118,0,.221,0,.3-.007a1.036,1.036,0,0,1,.108,0c.049,0,.1,0,.145,0h.018c.048,0,.1,0,.145,0a.81.81,0,0,0,.389-.081l.107-.1a1.187,1.187,0,0,1,.408-.06c.056,0,.116,0,.174.007h.04c.074,0,.151.007.22.007H25.1a1.119,1.119,0,0,1,.116,0h.24a1.191,1.191,0,0,0,.374-.046,15.212,15.212,0,0,0,2.053-.3l.052-.011.105-.019h.007l.137-.025c.933-.177,1.9-.386,2.878-.619.157-.036.3-.066.416-.088l.036-.007a5.237,5.237,0,0,0,1-.274,4.131,4.131,0,0,1,.6-.192,2.2,2.2,0,0,0,1.135-.547,1.47,1.47,0,0,1,.661-.277l.006,0,.052-.011a1.138,1.138,0,0,0,.584-.429l.017-.019.006-.006a1.983,1.983,0,0,1,.248-.246.181.181,0,0,0,.022-.253c-.027-.038-.052-.077-.077-.116l-.021-.032c-.03-.046-.06-.093-.091-.137l0-.007a2.146,2.146,0,0,0-.864-.9,6.391,6.391,0,0,1-.859-.514L33.912,4a5.322,5.322,0,0,0-1.1-.608c-.189-.07-.372-.14-.545-.208l-.007,0-.018-.007c-.277-.107-.622-.24-.953-.348a1.461,1.461,0,0,1-.845-.806A1.271,1.271,0,0,1,30.424.94a2.75,2.75,0,0,1,1.3-.718h.022A.986.986,0,0,1,32.358.5L32.4.528a2.262,2.262,0,0,0,.862.361l.019,0,.066.018.012,0L33.4.926a7.734,7.734,0,0,1,1.865.84l.025.012c.114.066.229.13.319.18A7.816,7.816,0,0,1,37.653,3.5a2.912,2.912,0,0,1,.929,2.9A3.741,3.741,0,0,1,37.1,8.384a8.412,8.412,0,0,1-1.9,1.028.53.53,0,0,0-.115.457c0,.05.008.1.008.158-.01.288-.009.582-.008.865V11.1c0,.074,0,.144,0,.218v.218a1.359,1.359,0,0,0,0,.243.625.625,0,0,1-.107.493l0,0c-.09.049-.212.116-.175.239a1.355,1.355,0,0,1-.238,1.077l-.006.011-.024.044c-.032.058-.069.125-.1.188a6.579,6.579,0,0,1-1.671,2.344,3.948,3.948,0,0,1-1.812.715.71.71,0,0,0-.5.345,6.618,6.618,0,0,0-.53,1.271,4.7,4.7,0,0,1-.837,1.5,3.768,3.768,0,0,0-.335.516l-.021.036a3.052,3.052,0,0,1-.549.771,5.43,5.43,0,0,0-.406.427l-.027.031-.012.014-.008.007-.022.026-.01.011a4.434,4.434,0,0,1-.582.583,4.56,4.56,0,0,0-.778.707,1.719,1.719,0,0,1-.815.482l-.053.02a2.687,2.687,0,0,0-.47.216,10.463,10.463,0,0,1-1.748.834,6.094,6.094,0,0,1-1.389.285c-.079.007-.158.018-.234.028l-.081.007-.016,0h0A19.029,19.029,0,0,1,19.3,25.194Zm.57-2.531h0a3.209,3.209,0,0,0,.485.049.977.977,0,0,0,.5-.12,8.053,8.053,0,0,0,4.675-2.172,8.885,8.885,0,0,0,1.952-2.763l.022-.053.013-.028.008-.019a18.455,18.455,0,0,0,.784-2.019l0-.018,0-.017a13.842,13.842,0,0,0,.648-2.94.867.867,0,0,0,.1-.75.9.9,0,0,1-.014-.137c-.014-.414-.125-.6-.36-.6a1.17,1.17,0,0,0-.481.155,1.289,1.289,0,0,1-.526.127h-.018l-.141,0-.141,0h-.012c-.109-.007-.228-.011-.344-.011a2.034,2.034,0,0,0-1,.211.974.974,0,0,1-.429.084c-.067,0-.134,0-.2-.007l-.048,0-.069,0H25.2a.935.935,0,0,0-.152.011c-.077,0-.155,0-.237,0-.129,0-.253,0-.4-.007h-.04c-.107,0-.222-.007-.334-.007a2.789,2.789,0,0,0-.759.088l-.265,0-.3.006-.067,0h-.018c-.179,0-.4.007-.611.014a.464.464,0,0,1-.3.123c-.252,0-.513,0-.815,0-.379,0-.738,0-1.1,0h-.018c-.415,0-.853,0-1.278,0-.905,0-1.6-.011-2.248-.035a.541.541,0,0,0-.344-.109H15.65c-.411,0-.822,0-1.223-.011h-.014l-.366,0a.791.791,0,0,0-.408-.074c-.051,0-.1,0-.152,0s-.073,0-.119,0-.1,0-.148,0h-.008c-.059,0-.116,0-.171,0a.8.8,0,0,1-.4-.081,2.4,2.4,0,0,1-.632-.112l-.027-.007a2.49,2.49,0,0,0-.615-.1,1.07,1.07,0,0,0-.185.014,1.975,1.975,0,0,1-.308.025,1.1,1.1,0,0,1-.537-.123.288.288,0,0,0-.137-.039.188.188,0,0,0-.185.2c0,.041-.008.087-.014.144,0,.033-.008.069-.012.109l0,.017v.005a1.135,1.135,0,0,0,.051.685,2.518,2.518,0,0,1,.292,1.182v.006a3.315,3.315,0,0,0,.145.86,7.639,7.639,0,0,1,.263,1.08l.014.075.022.105c.016.088.037.187.064.31a4.012,4.012,0,0,0,.464,1.066l.021.039.067.121.067.121c.087.159.164.33.232.481l.039.086a3.644,3.644,0,0,0,.73,1.2c.222.217.427.457.608.669l.021.025.018.025.049.057,0,0a7.043,7.043,0,0,0,1.089,1.083,8.9,8.9,0,0,0,2.956,1.457,2.96,2.96,0,0,0,.582.1,2.737,2.737,0,0,1,.714.141l.048.007a3.251,3.251,0,0,0,.46.042,1.38,1.38,0,0,0,.278-.028l.189-.007ZM6.826,10.511a.109.109,0,0,0-.083.029c-.055.054-.05.19-.037.446a.781.781,0,0,1,.082.49v.011a1.124,1.124,0,0,0,.014.327q.014.1.026.2a1.6,1.6,0,0,0,.6,1.277A.845.845,0,0,0,7.5,12.51a1.166,1.166,0,0,1-.046-.5.676.676,0,0,1-.143-.564,1.6,1.6,0,0,0,0-.245v-.042a.791.791,0,0,0-.126-.553A1.462,1.462,0,0,0,6.826,10.511Z" transform="translate(-15079.705 1347.559)" fill="#313a38" stroke="#313a38" stroke-miterlimit="10" stroke-width="0.5"/>
    <path id="Subtraction_16" data-name="Subtraction 16" d="M9.73,14.5c-.387,0-.792-.015-1.205-.045l-.446.007a2.443,2.443,0,0,1-.395.03,3.6,3.6,0,0,1-.449-.03l-.136-.06-.011,0-.125-.055a.423.423,0,0,0-.354-.14l-.1,0-.093,0a.586.586,0,0,1-.206-.03,1.443,1.443,0,0,1-.2.014,2.946,2.946,0,0,1-.874-.178l-.025-.008a2.938,2.938,0,0,0-.85-.17,1.46,1.46,0,0,0-.154.008.749.749,0,0,1-.076,0,1.847,1.847,0,0,1-.406-.056.774.774,0,0,0-.407-.092c-.047,0-.093,0-.139,0H3.026l-.125,0a1.034,1.034,0,0,1-.209-.018,4.975,4.975,0,0,0-.921-.216,4.086,4.086,0,0,1-1.143-.311,1.8,1.8,0,0,1-.576-.507L0,12.6a4.338,4.338,0,0,0,.021-1.487l0-.019a.861.861,0,0,1,.132-.673.9.9,0,0,0,.12-.6A2.33,2.33,0,0,1,.514,8.653l0-.007,0-.007a4.554,4.554,0,0,0,.188-.526c.036-.134.081-.267.125-.4l0-.012a3.034,3.034,0,0,0,.2-.792,2.252,2.252,0,0,1,.263-.791l.018-.041c.025-.052.049-.1.071-.152l.059-.13.017-.038c.3-.666.607-1.355.883-2.046l.041-.105a2.748,2.748,0,0,1,.536-.967,2.411,2.411,0,0,0,.427-.622,2.505,2.505,0,0,1,.4-.6A5.535,5.535,0,0,1,5,.446,2.5,2.5,0,0,1,5.545.23l.007,0A3.3,3.3,0,0,0,5.944.091,2.744,2.744,0,0,1,6.488.024a1.2,1.2,0,0,1,.568.131.31.31,0,0,1,.036.031c.027.025.05.046.073.046A1.29,1.29,0,0,1,7.3.225a2.471,2.471,0,0,1,.679.127L8,.357a2.561,2.561,0,0,0,.678.121h.063a2.574,2.574,0,0,1,.5.067l.038.008A2.687,2.687,0,0,0,9.843.63,1.242,1.242,0,0,0,9.987.622a.747.747,0,0,1,.384-.084c.047,0,.094,0,.142,0h.026c.044,0,.088,0,.131,0a.722.722,0,0,0,.372-.082c.006-.009.013-.019.019-.03L11.07.418c.025-.043.049-.084.073-.084a1.853,1.853,0,0,0,.636-.168A1.757,1.757,0,0,1,12.427,0,3.6,3.6,0,0,0,13,.055,1.842,1.842,0,0,0,13.457,0a4.971,4.971,0,0,1,2.359,1.912,18.8,18.8,0,0,1,1.452,2.749c.1.223.2.447.3.658A7.94,7.94,0,0,1,18.413,7.9q.005.059.011.121a1.8,1.8,0,0,0,.45,1.242.211.211,0,0,1,.046.169,2.013,2.013,0,0,0,.128.846l0,.006a2.661,2.661,0,0,1,.137.635c.01.16.01.322.01.479v.024a5.779,5.779,0,0,0,.025.615,1.841,1.841,0,0,1-1.466,1.371,3.661,3.661,0,0,0-.963.222.521.521,0,0,1-.3.078c-.039,0-.079,0-.117,0h-.1a.527.527,0,0,0-.335.09,3.517,3.517,0,0,0-.389-.021,6.619,6.619,0,0,0-1.294.158c-.214.041-.435.068-.649.094H13.6a5.593,5.593,0,0,0-1.03.19,6.068,6.068,0,0,1-1.575.235l-.126.008C10.5,14.488,10.117,14.5,9.73,14.5Zm-1.6-2.637a1.5,1.5,0,0,1,.568.15,2.122,2.122,0,0,0,.391.132l.119.011c.122.012.247.024.37.024a1.038,1.038,0,0,0,.541-.13l.28-.012.039,0,.32-.014a.49.49,0,0,1,.4-.142h.2c.019,0,.041,0,.065,0,.054,0,.11.005.163.01s.112.009.169.009a.647.647,0,0,0,.221-.034,8.507,8.507,0,0,1,2.629-.394h.039a.512.512,0,0,1,.332-.09h.1c.04,0,.081,0,.121,0a.521.521,0,0,0,.305-.078c.069-.023.137-.049.2-.072a1.711,1.711,0,0,1,.612-.149.981.981,0,0,1,.109.006h.025a.149.149,0,0,0,.123-.057.377.377,0,0,0,.039-.3q-.029-.117-.055-.234l-.025-.1,0-.007a6.886,6.886,0,0,0-.365-1.236.8.8,0,0,1-.056-.3V8.857a.511.511,0,0,0-.1-.336,1.512,1.512,0,0,1-.316-.787l0-.017a2.763,2.763,0,0,0-.1-.391c-.042-.121-.083-.244-.125-.366a8.137,8.137,0,0,0-.55-1.367,12.831,12.831,0,0,1-.893-1.867,1.732,1.732,0,0,0-1.584-1.16h-.023a.427.427,0,0,0-.259.109.453.453,0,0,1-.244.112,9.193,9.193,0,0,0-1.055.18c-.161.034-.305.064-.449.091a3.345,3.345,0,0,1-.582.043c-.09,0-.177,0-.266,0h-.2c-.092,0-.2,0-.307.008-.056,0-.109,0-.165,0H8.829a1.292,1.292,0,0,1-.48-.063,1.318,1.318,0,0,0-.656-.185l-.079,0-.047,0H7.551c-.054,0-.108.007-.159.007a.488.488,0,0,1-.463-.24c-.027-.044-.148-.07-.335-.07a1.243,1.243,0,0,0-.653.126c-.121.2-.257.395-.39.584a6.087,6.087,0,0,0-.639,1.062L4.8,4.6A8.12,8.12,0,0,1,4.113,6a3.451,3.451,0,0,0-.377.888l-.016.051c-.021.065-.041.129-.063.193l-.038.11a10.411,10.411,0,0,0-.387,1.293,1.75,1.75,0,0,1-.176.449,1.136,1.136,0,0,0-.179.687.629.629,0,0,1-.183.584.913.913,0,0,0-.06.757c.026.061.057.093.092.093h.02a2.625,2.625,0,0,1,.665.116,2.513,2.513,0,0,0,.67.121,1.191,1.191,0,0,0,.266-.029.464.464,0,0,0,.3.082H4.8a.48.48,0,0,1,.305.082l.39.056a10.7,10.7,0,0,1,1.733.342,3.361,3.361,0,0,0,.456.034,2.163,2.163,0,0,0,.395-.034Z" transform="translate(-15069.494 1337.713)" fill="#313a38" stroke="#313a38" stroke-miterlimit="10" stroke-width="0.5"/>
  </g>
</svg>
